<?xml version="1.0" encoding="UTF-8"?>
<svg width="128" height="128" version="1.1" viewBox="0 0 128 128" xmlns="http://www.w3.org/2000/svg">
 <g transform="rotate(11.993)" style="fill:#fff" aria-label="I">
  <path d="m54.343 93.933h-13.455v-0.89697l4.4848-0.89697v-68.17l-4.4848-0.89697v-0.89697h13.455v0.89697l-4.4848 0.89697v68.17l4.4848 0.89697z"/>
 </g>
 <g transform="rotate(-14.009)" style="fill:#fff" aria-label="J">
  <path d="m51.633 43.446-4.4848 0.89697v56.509q0 5.2921-4.1261 9.4182-4.0364 4.0364-9.3285 4.0364-5.2921 0-9.4182-4.0364-4.0364-4.1261-4.0364-9.4182v-7.1758l-4.4848-0.89697v-0.89697h13.455v0.89697l-4.4848 0.89697v7.1758q0 3.4982 2.6909 6.2788 2.7806 2.6909 6.2788 2.6909 3.4982 0 6.1891-2.6909 2.7806-2.7806 2.7806-6.2788v-56.509l-4.4848-0.89697v-0.89697h13.455z"/>
 </g>
 <g transform="rotate(-25)" style="fill:#fff" aria-label="S">
  <path d="m64.695 84.785h-13.455v-0.89697l4.4848-0.89697v-7.1758q0-3.4982-2.7806-6.1891-2.6909-2.7806-6.1891-2.7806t-6.2788 2.7806q-2.6909 2.6909-2.6909 6.1891v4.4848q0 3.4982 2.6909 6.2788 2.7806 2.6909 6.2788 2.6909 5.2921 0 9.3285 4.1261 4.1261 4.0364 4.1261 9.3285v17.939q0 5.2921-4.1261 9.4182-4.0364 4.0364-9.3285 4.0364t-9.4182-4.0364q-4.0364-4.1261-4.0364-9.4182v-7.1758l-4.4848-0.89697v-0.89697h13.455v0.89697l-4.4848 0.89697v7.1758q0 3.4982 2.6909 6.2788 2.7806 2.6909 6.2788 2.6909t6.1891-2.6909q2.7806-2.7806 2.7806-6.2788v-17.939q0-3.4982-2.7806-6.1891-2.6909-2.7806-6.1891-2.7806-5.2921 0-9.4182-4.0364-4.0364-4.1261-4.0364-9.4182v-4.4848q0-5.2921 4.0364-9.3285 4.1261-4.1261 9.4182-4.1261t9.3285 4.1261q4.1261 4.0364 4.1261 9.3285v7.1758l4.4848 0.89697z"/>
 </g>
 <path d="m16.086 84.934v22.6h4.5v-0.00195h86.277v0.00195h4.5v-22.6h-4.5v18.098h-86.277v-18.098h-4.5z" style="fill:#ff0;stroke-width:0"/>
</svg>
