<?xml version="1.0" standalone="no"?>
<!DOCTYPE svg PUBLIC "-//W3C//DTD SVG 20010904//EN"
 "http://www.w3.org/TR/2001/REC-SVG-20010904/DTD/svg10.dtd">
<svg version="1.0" xmlns="http://www.w3.org/2000/svg"
 width="700.000000pt" height="700.000000pt" viewBox="0 0 700.000000 700.000000"
 preserveAspectRatio="xMidYMid meet">
<metadata>
Created by potrace 1.14, written by Peter Selinger 2001-2017
</metadata>
<g transform="translate(0.000000,700.000000) scale(0.100000,-0.100000)"
fill="#000000" stroke="none">
<path d="M3035 5732 c-115 -29 -217 -55 -225 -56 -8 -2 -44 -12 -80 -21 -36
-9 -76 -19 -90 -21 -14 -3 -94 -23 -178 -44 -85 -22 -156 -40 -159 -40 -3 0
-3 -12 0 -26 5 -30 8 -30 -128 0 -11 3 -87 19 -170 36 -82 18 -157 34 -165 35
-163 37 -407 85 -416 81 -6 -2 -14 -16 -16 -30 -5 -23 1 -28 81 -62 47 -20
104 -44 126 -54 22 -9 52 -22 68 -28 15 -7 27 -16 27 -22 0 -6 -12 -63 -26
-128 -14 -64 -39 -182 -55 -262 -17 -80 -32 -154 -35 -165 -3 -11 -9 -40 -14
-65 -5 -25 -11 -54 -14 -65 -13 -59 -72 -332 -102 -480 -20 -93 -38 -179 -40
-190 -3 -11 -9 -42 -14 -68 -6 -27 -21 -99 -34 -160 -14 -62 -50 -231 -81
-377 -31 -146 -62 -292 -70 -325 -8 -33 -17 -78 -22 -100 -4 -22 -8 -42 -8
-45 -1 -3 -5 -23 -10 -45 -9 -47 -5 -29 -50 -235 -19 -91 -37 -176 -40 -190
-11 -58 -16 -79 -35 -165 -11 -49 -22 -101 -24 -115 -3 -14 -16 -79 -31 -145
-14 -66 -44 -203 -65 -305 -22 -102 -55 -261 -75 -355 -20 -93 -38 -179 -41
-191 -2 -11 -18 -85 -35 -165 -17 -79 -32 -153 -35 -164 -2 -11 -21 -101 -42
-200 l-38 -180 -172 -3 -172 -2 0 535 c0 502 -1 535 -17 536 -10 0 -83 1 -163
2 l-145 0 -3 -830 -2 -830 3500 0 3500 0 0 831 0 831 -143 -2 c-78 -1 -152 -2
-164 -2 l-23 -1 -2 -663 -3 -662 -445 -1 -445 -1 87 17 c109 23 145 34 238 77
247 114 431 339 515 629 35 121 40 156 39 304 0 187 -17 248 -146 520 -28 58
-74 157 -104 221 -29 64 -80 174 -114 244 -33 70 -60 129 -60 131 0 2 -24 54
-54 116 -29 62 -68 145 -86 183 -18 39 -46 99 -63 135 -96 208 -242 358 -442
458 -86 43 -236 94 -326 112 -143 28 -337 13 -464 -35 -212 -81 -237 -87 -335
-90 -229 -6 -460 107 -579 284 -44 66 -212 423 -232 496 -8 30 -14 93 -13 160
1 95 5 122 32 201 76 224 221 376 417 437 55 17 94 21 180 21 96 -1 122 -5
205 -32 157 -53 270 -126 345 -227 29 -39 165 -302 165 -319 0 -2 27 -60 60
-129 33 -69 60 -130 60 -135 0 -8 -183 -149 -238 -183 -17 -11 -21 -20 -17
-39 4 -14 10 -29 14 -33 4 -4 57 15 117 44 60 28 134 62 164 76 30 14 165 77
300 140 135 63 261 122 281 131 34 15 36 18 27 44 -12 33 -34 36 -97 13 -22
-8 -41 -12 -41 -10 0 2 -18 -2 -40 -10 -22 -8 -40 -12 -40 -10 0 2 -24 -3 -52
-11 -29 -7 -58 -14 -64 -14 -6 0 -64 114 -129 253 -139 299 -186 378 -280 473
-194 196 -509 320 -785 309 -52 -2 -111 -7 -130 -10 -76 -13 -234 -75 -312
-121 -94 -56 -225 -180 -282 -268 -110 -167 -183 -377 -191 -549 -1 -32 -4
-60 -7 -62 -3 -4 -39 127 -54 200 -1 6 -63 254 -138 552 -75 299 -136 545
-136 548 0 5 60 34 268 132 29 14 33 20 27 42 -4 14 -9 28 -13 31 -4 3 -101
-18 -217 -48z m-155 -1159 c127 -511 233 -935 235 -943 2 -8 28 -116 60 -240
31 -124 58 -233 60 -243 2 -9 11 -45 20 -80 9 -34 18 -69 20 -77 2 -8 35 -143
75 -300 39 -157 73 -294 75 -305 3 -11 36 -146 75 -300 39 -154 72 -289 75
-300 2 -11 25 -103 50 -205 43 -170 46 -192 42 -275 -7 -123 -18 -166 -72
-275 -53 -105 -120 -187 -211 -260 -35 -27 -128 -71 -189 -89 -128 -38 -254
-34 -390 15 -103 36 -170 80 -261 169 -116 114 -143 176 -229 523 -37 150 -66
274 -64 276 2 2 63 32 134 65 170 80 161 74 157 107 -2 16 -5 30 -7 32 -1 2
-175 -40 -386 -93 -211 -53 -395 -99 -408 -101 -14 -3 -28 -7 -31 -9 -4 -2
-22 -7 -41 -10 -19 -4 -41 -8 -49 -10 -8 -2 -21 -4 -27 -4 -7 -1 -13 -11 -13
-23 0 -48 7 -50 166 -43 173 8 156 8 170 6 9 -1 34 -76 49 -151 26 -129 122
-466 149 -525 127 -274 390 -478 726 -563 21 -6 -277 -9 -756 -9 l-792 0 2 29
c1 27 -4 31 -69 59 -38 16 -79 33 -90 38 -11 5 -47 21 -81 36 l-61 26 13 57
c8 31 16 66 18 77 4 19 45 214 51 245 25 113 72 335 96 450 17 80 32 154 35
165 2 11 6 30 8 43 3 12 7 30 10 40 3 9 7 28 10 42 6 39 95 460 107 510 6 25
13 59 16 75 3 17 13 67 24 112 10 44 21 94 23 110 3 15 24 114 46 218 23 105
45 210 50 235 17 81 19 94 40 188 11 50 29 136 40 190 12 53 25 115 30 137 10
40 44 201 60 285 5 25 11 54 14 65 16 70 141 662 150 705 2 14 19 90 36 170
17 80 34 156 36 170 3 14 23 108 45 209 21 101 41 193 43 205 26 139 41 187
60 191 12 3 85 4 164 2 154 -3 168 1 160 47 -5 23 -3 23 71 25 41 1 76 3 78 4
1 1 28 3 61 5 l59 2 233 -927z m530 -723 c0 -5 29 -70 65 -145 36 -75 65 -138
65 -141 0 -3 25 -45 56 -92 90 -138 226 -258 379 -335 45 -22 222 -89 228 -85
2 1 54 -8 97 -18 54 -12 229 -10 303 3 43 7 119 29 170 49 254 98 371 105 568
31 201 -76 308 -173 393 -358 47 -104 86 -188 141 -304 43 -90 205 -440 275
-590 15 -33 54 -114 85 -180 97 -205 116 -336 74 -506 -52 -209 -173 -368
-339 -447 -100 -47 -160 -62 -255 -65 -90 -2 -162 8 -237 34 -194 65 -322 180
-408 364 -63 136 -98 211 -154 329 -31 65 -56 120 -56 122 0 2 61 48 135 104
l135 100 -15 29 -15 29 -47 -23 c-27 -12 -70 -33 -98 -45 -27 -13 -106 -49
-174 -81 -68 -33 -125 -59 -126 -59 -2 0 -57 -25 -122 -56 -237 -113 -305
-144 -314 -144 -12 0 -11 -14 3 -45 7 -16 17 -24 27 -21 9 3 75 19 146 36 72
17 138 33 147 36 13 4 23 -8 41 -48 14 -29 43 -91 65 -138 22 -47 56 -121 77
-165 105 -226 155 -305 258 -402 155 -146 378 -252 582 -279 28 -3 51 -7 53
-9 1 -1 -550 -2 -1225 -2 -1194 0 -1226 1 -1153 18 290 68 520 266 665 571 65
138 88 238 89 383 1 66 -2 141 -6 166 -4 26 -118 491 -253 1035 -136 544 -249
996 -251 1004 -2 8 -11 44 -19 80 -18 69 -23 90 -29 118 -2 9 -13 50 -24 89
-11 40 -15 70 -11 67 5 -3 9 -9 9 -14z m-2791 -3385 c67 -15 135 -29 150 -31
14 -3 42 -9 61 -14 19 -5 49 -12 65 -14 32 -6 33 -6 145 -31 41 -9 91 -19 110
-22 107 -16 19 -21 -378 -20 l-442 0 0 97 0 97 83 -18 c45 -10 138 -30 206
-44z"/>
</g>
</svg>
